<svg width="48" height="48" viewBox="0 0 48 48" fill="none" xmlns="http://www.w3.org/2000/svg">
<path d="M37.4607 15.1882C37.4607 11.9557 36.0084 8.85557 33.4234 6.56984C30.8383 4.28411 27.3322 3 23.6764 3C20.0206 3 16.5145 4.28411 13.9295 6.56984C11.3444 8.85557 9.89214 11.9557 9.89214 15.1882C9.89214 29.4078 3 33.4705 3 33.4705H44.3528C44.3528 33.4705 37.4607 29.4078 37.4607 15.1882Z" stroke="black" stroke-width="2.5" stroke-linecap="round" stroke-linejoin="round"/>
<path d="M28.5293 40.3677C28.5293 40.976 28.3895 41.5784 28.1179 42.1404C27.8463 42.7024 27.4483 43.2131 26.9464 43.6432C26.4446 44.0734 25.8488 44.4146 25.1931 44.6474C24.5374 44.8802 23.8346 45 23.1249 45C22.4152 45 21.7124 44.8802 21.0567 44.6474C20.4011 44.4146 19.8053 44.0734 19.3034 43.6432C18.8016 43.2131 18.4035 42.7024 18.1319 42.1404C17.8603 41.5784 17.7205 40.976 17.7205 40.3677" stroke="black" stroke-width="2.5" stroke-linecap="round" stroke-linejoin="round"/>
</svg>
