<svg width="29" height="33" viewBox="0 0 29 33" fill="none" xmlns="http://www.w3.org/2000/svg">
<path d="M22.1667 10.0915C22.1667 8.26357 21.3589 6.51049 19.9212 5.21793C18.4834 3.92537 16.5333 3.19922 14.5 3.19922C12.4667 3.19922 10.5166 3.92537 9.07885 5.21793C7.64107 6.51049 6.83333 8.26357 6.83333 10.0915C6.83333 18.1326 3 20.43 3 20.43H26C26 20.43 22.1667 18.1326 22.1667 10.0915Z" fill="black" stroke="black" stroke-width="5" stroke-linecap="round" stroke-linejoin="round"/>
<path d="M16.8002 28.7656C16.5665 29.2024 16.231 29.5649 15.8273 29.8169C15.4237 30.0689 14.966 30.2015 14.5002 30.2015C14.0344 30.2015 13.5767 30.0689 13.1731 29.8169C12.7694 29.5649 12.4339 29.2024 12.2002 28.7656" stroke="black" stroke-width="4.3" stroke-linecap="round" stroke-linejoin="round"/>
<path d="M17.0126 26.6109C17.2335 26.6109 17.4171 26.7925 17.3642 27.007C17.3281 27.1534 17.2721 27.2969 17.1967 27.4351C17.0541 27.6964 16.8452 27.9339 16.5818 28.1339C16.3183 28.3339 16.0056 28.4925 15.6615 28.6008C15.3173 28.709 14.9484 28.7647 14.5759 28.7647C14.2034 28.7647 13.8345 28.709 13.4904 28.6008C13.1462 28.4925 12.8335 28.3339 12.5701 28.1339C12.3067 27.9339 12.0977 27.6964 11.9552 27.4351C11.8798 27.2969 11.8237 27.1534 11.7876 27.007C11.7348 26.7925 11.9183 26.6109 12.1393 26.6109L14.5759 26.6109H17.0126Z" fill="black"/>
</svg>
