<svg width="29" height="33" viewBox="0 0 29 33" fill="none" xmlns="http://www.w3.org/2000/svg">
<path d="M22.1667 9.89231C22.1667 8.06435 21.3589 6.31127 19.9212 5.01871C18.4834 3.72615 16.5333 3 14.5 3C12.4667 3 10.5166 3.72615 9.07885 5.01871C7.64107 6.31127 6.83333 8.06435 6.83333 9.89231C6.83333 17.9333 3 20.2308 3 20.2308H26C26 20.2308 22.1667 17.9333 22.1667 9.89231Z" fill="#999999" stroke="#999999" stroke-width="5" stroke-linecap="round" stroke-linejoin="round"/>
<path d="M16.8002 28.5664C16.5665 29.0031 16.231 29.3657 15.8273 29.6177C15.4237 29.8697 14.966 30.0023 14.5002 30.0023C14.0344 30.0023 13.5767 29.8697 13.1731 29.6177C12.7694 29.3657 12.4339 29.0031 12.2002 28.5664" stroke="#999999" stroke-width="4.3" stroke-linecap="round" stroke-linejoin="round"/>
<path d="M17.0126 26.4117C17.2335 26.4117 17.4171 26.5932 17.3642 26.8077C17.3281 26.9541 17.2721 27.0976 17.1967 27.2359C17.0541 27.4972 16.8452 27.7347 16.5818 27.9347C16.3183 28.1347 16.0056 28.2933 15.6615 28.4016C15.3173 28.5098 14.9484 28.5655 14.5759 28.5655C14.2034 28.5655 13.8345 28.5098 13.4904 28.4016C13.1462 28.2933 12.8335 28.1347 12.5701 27.9347C12.3067 27.7347 12.0977 27.4972 11.9552 27.2359C11.8798 27.0976 11.8237 26.9541 11.7876 26.8077C11.7348 26.5932 11.9183 26.4117 12.1393 26.4117L14.5759 26.4117H17.0126Z" fill="#999999"/>
</svg>
