<svg width="48" height="48" viewBox="0 0 48 48" fill="none" xmlns="http://www.w3.org/2000/svg">
<path fill-rule="evenodd" clip-rule="evenodd" d="M22.1405 2.91264C23.424 1.67855 25.459 1.69849 26.718 2.95751L47.0359 23.2754C49.0954 25.3349 47.6368 28.8562 44.7243 28.8562H41.5341C41.2916 28.8562 41.1488 28.9009 41.0705 28.9373C40.9935 28.9731 40.944 29.0168 40.9067 29.0634C40.815 29.1781 40.7797 29.3383 40.7797 29.4104V42.4869C40.7797 44.1038 40.0778 45.2357 39.1254 45.9215C38.237 46.5611 37.2088 46.762 36.5046 46.762H31.9781C30.3473 46.762 29.247 46.0433 28.6244 45.0322C28.0608 44.1169 27.9653 43.0906 27.9653 42.4869V31.8796L27.9686 31.8342C28.0623 30.5419 27.6311 29.7301 27.0375 29.215C26.4026 28.664 25.461 28.3533 24.434 28.3533C22.704 28.3533 21.93 29.0052 21.5212 29.6439C21.0524 30.3762 20.938 31.3016 20.938 31.9251V42.4869C20.938 44.1736 20.1029 45.3022 19.0953 45.9559C18.1537 46.5668 17.08 46.762 16.3869 46.762H11.3575C9.74059 46.762 8.6087 46.0601 7.92294 45.1077C7.28334 44.2193 7.08244 43.1911 7.08244 42.4869V29.4104C7.08244 29.1862 7.03702 29.0799 7.01516 29.0397C6.99395 29.0007 6.967 28.9721 6.92246 28.9445C6.87104 28.9126 6.79435 28.882 6.69511 28.8635C6.59485 28.8449 6.50477 28.8448 6.45254 28.85L6.39043 28.8562H3.27571C0.332218 28.8562 -1.11192 25.2707 1.00984 23.2306L22.1405 2.91264ZM24.9398 4.73568C24.6493 4.44514 24.1797 4.44054 23.8835 4.72533L2.75282 25.0433C2.26318 25.5141 2.59644 26.3415 3.27571 26.3415H6.2743C6.80156 26.3018 7.56342 26.3827 8.24831 26.8077C9.05265 27.3068 9.59716 28.1894 9.59716 29.4104V42.4869C9.59716 42.7887 9.69802 43.2693 9.96372 43.6383C10.1833 43.9432 10.5602 44.2472 11.3575 44.2472H16.3869C16.6997 44.2472 17.2728 44.1407 17.7266 43.8463C18.1143 43.5947 18.4232 43.2145 18.4232 42.4869V31.9251C18.4232 31.0966 18.5587 29.6074 19.4032 28.2881C20.3077 26.8752 21.9104 25.8385 24.434 25.8385C25.9217 25.8385 27.4948 26.2822 28.6857 27.3157C29.9084 28.3768 30.6127 29.9629 30.48 31.9686V42.4869C30.48 42.8892 30.5552 43.3717 30.7658 43.7137C30.9174 43.96 31.1949 44.2472 31.9781 44.2472H36.5046C36.8064 44.2472 37.287 44.1464 37.656 43.8807C37.9609 43.6611 38.2649 43.2842 38.2649 42.4869V29.4104C38.2649 28.8787 38.4308 28.1331 38.9426 27.493C39.4982 26.7981 40.3723 26.3415 41.5341 26.3415H44.7243C45.3964 26.3415 45.733 25.5289 45.2578 25.0536L24.9398 4.73568Z" fill="#1A1A1A"/>
</svg>
