<svg width="48" height="48" viewBox="0 0 48 48" fill="none" xmlns="http://www.w3.org/2000/svg">
<path d="M47.3739 24.0655L25.9302 2.62188C25.1125 1.80418 23.7908 1.79122 22.9572 2.59274L0.655873 24.0364C-0.72217 25.3614 0.215769 27.6901 2.1275 27.6901H3.6238H5.34893C6.05667 27.6197 7.47216 27.9034 7.47216 29.602V43.403C7.47216 44.4647 8.10913 46.5879 10.657 46.5879H15.9651C17.0267 46.5879 19.4413 45.9509 19.4413 43.403V32.2561C19.4413 30.7236 19.9687 27.1593 24.458 27.1593C27.1121 27.1593 29.7661 28.7517 29.512 32.2561V43.403C29.512 44.4647 29.8723 46.5879 32.4202 46.5879H37.1974C38.259 46.5879 40.3823 45.9509 40.3823 43.403V29.602C40.3823 28.9647 40.8069 27.6901 42.5055 27.6901H44.2306H45.8725C47.7641 27.6901 48.7114 25.4031 47.3739 24.0655Z" fill="#1A1A1A"/>
</svg>
