<svg width="50" height="50" viewBox="0 0 50 50" fill="none" xmlns="http://www.w3.org/2000/svg">
<path d="M25.4722 8.00006C22.9058 7.99337 20.3741 8.59297 18.0833 9.75005C15.3383 11.122 13.0294 13.2311 11.4153 15.8411C9.80119 18.4511 8.94563 21.459 8.94444 24.5278C8.93847 26.8161 9.41452 29.0768 10.3379 31.1637C10.5537 31.6513 10.5996 32.2012 10.431 32.7071L8.26491 39.2053C7.74374 40.7688 9.23122 42.2563 10.7947 41.7351L17.2929 39.569C17.7988 39.4004 18.3487 39.4463 18.8363 39.6621C20.9232 40.5855 23.1839 41.0615 25.4722 41.0556C28.541 41.0544 31.5489 40.1988 34.1589 38.5847C36.7689 36.9706 38.878 34.6617 40.2499 31.9167C41.407 29.6259 42.0066 27.0942 41.9999 24.5278V23.5556C41.7763 19.5027 40.0657 15.6747 37.1955 12.8045C34.3253 9.93431 30.4973 8.22365 26.4444 8.00006H25.4722Z" fill="url(#paint0_radial)" stroke="#1FAEF7" stroke-width="0.1" stroke-linecap="round" stroke-linejoin="round"/>
<g filter="url(#filter0_d)">
<path d="M36.2728 24.5454C36.2772 26.2252 35.8847 27.8823 35.1274 29.3817C34.2294 31.1785 32.8489 32.6898 31.1405 33.7463C29.4321 34.8028 27.4633 35.3628 25.4547 35.3635C23.8707 35.3677 22.307 35.019 20.8766 34.3442C20.7102 34.2657 20.5201 34.2508 20.3456 34.309L14.673 36.1999C14.1335 36.3797 13.6204 35.8665 13.8002 35.3271L15.691 29.6544C15.7492 29.4799 15.7343 29.2898 15.6558 29.1234C14.9811 27.693 14.6324 26.1293 14.6365 24.5454C14.6373 22.5367 15.1973 20.5679 16.2538 18.8595C17.3103 17.1512 18.8215 15.7707 20.6183 14.8727C22.1177 14.1153 23.7748 13.7228 25.4547 13.7272H26.091C28.7438 13.8736 31.2494 14.9933 33.1281 16.8719C35.0068 18.7506 36.1265 21.2562 36.2728 23.909V24.5454Z" fill="url(#paint1_radial)"/>
</g>
<path d="M21.2793 20.2302H22.5873L26.2473 28.7262H24.5193L23.7273 26.7822H20.0433L19.2753 28.7262H17.5833L21.2793 20.2302ZM23.1993 25.4862L21.8913 22.0302L20.5593 25.4862H23.1993ZM31.0719 27.9942H31.0359C30.8919 28.2502 30.6599 28.4622 30.3399 28.6302C30.0199 28.7902 29.6559 28.8702 29.2479 28.8702C29.0159 28.8702 28.7719 28.8382 28.5159 28.7742C28.2679 28.7182 28.0359 28.6222 27.8199 28.4862C27.6119 28.3422 27.4359 28.1582 27.2919 27.9342C27.1559 27.7022 27.0879 27.4182 27.0879 27.0822C27.0879 26.6502 27.2079 26.3062 27.4479 26.0502C27.6959 25.7942 28.0119 25.5982 28.3959 25.4622C28.7799 25.3262 29.2039 25.2382 29.6679 25.1982C30.1399 25.1502 30.5999 25.1262 31.0479 25.1262V24.9822C31.0479 24.6222 30.9159 24.3582 30.6519 24.1902C30.3959 24.0142 30.0879 23.9262 29.7279 23.9262C29.4239 23.9262 29.1319 23.9902 28.8519 24.1182C28.5719 24.2462 28.3399 24.4022 28.1559 24.5862L27.4119 23.7102C27.7399 23.4062 28.1159 23.1782 28.5399 23.0262C28.9719 22.8742 29.4079 22.7982 29.8479 22.7982C30.3599 22.7982 30.7799 22.8702 31.1079 23.0142C31.4439 23.1582 31.7079 23.3462 31.8999 23.5782C32.0919 23.8102 32.2239 24.0702 32.2959 24.3582C32.3759 24.6462 32.4159 24.9342 32.4159 25.2222V28.7262H31.0719V27.9942ZM31.0479 26.0982H30.7239C30.4919 26.0982 30.2479 26.1102 29.9919 26.1342C29.7359 26.1502 29.4999 26.1942 29.2839 26.2662C29.0679 26.3302 28.8879 26.4262 28.7439 26.5542C28.5999 26.6742 28.5279 26.8422 28.5279 27.0582C28.5279 27.1942 28.5559 27.3102 28.6119 27.4062C28.6759 27.4942 28.7559 27.5662 28.8519 27.6222C28.9479 27.6782 29.0559 27.7182 29.1759 27.7422C29.2959 27.7662 29.4159 27.7782 29.5359 27.7782C30.0319 27.7782 30.4079 27.6462 30.6639 27.3822C30.9199 27.1182 31.0479 26.7582 31.0479 26.3022V26.0982Z" fill="#FBFBFB"/>
<path d="M21.2793 20.2302V20.1302H21.2137L21.1876 20.1903L21.2793 20.2302ZM22.5873 20.2302L22.6791 20.1906L22.6531 20.1302H22.5873V20.2302ZM26.2473 28.7262V28.8262H26.3992L26.3391 28.6866L26.2473 28.7262ZM24.5193 28.7262L24.4266 28.7639L24.452 28.8262H24.5193V28.7262ZM23.7273 26.7822L23.8199 26.7445L23.7945 26.6822H23.7273V26.7822ZM20.0433 26.7822V26.6822H19.9752L19.9503 26.7455L20.0433 26.7822ZM19.2753 28.7262V28.8262H19.3433L19.3683 28.7629L19.2753 28.7262ZM17.5833 28.7262L17.4916 28.6863L17.4307 28.8262H17.5833V28.7262ZM23.1993 25.4862V25.5862H23.344L23.2928 25.4508L23.1993 25.4862ZM21.8913 22.0302L21.9848 21.9948L21.8921 21.7499L21.7979 21.9942L21.8913 22.0302ZM20.5593 25.4862L20.4659 25.4502L20.4135 25.5862H20.5593V25.4862ZM21.2793 20.3302H22.5873V20.1302H21.2793V20.3302ZM22.4954 20.2698L26.1554 28.7658L26.3391 28.6866L22.6791 20.1906L22.4954 20.2698ZM26.2473 28.6262H24.5193V28.8262H26.2473V28.6262ZM24.6119 28.6885L23.8199 26.7445L23.6346 26.8199L24.4266 28.7639L24.6119 28.6885ZM23.7273 26.6822H20.0433V26.8822H23.7273V26.6822ZM19.9503 26.7455L19.1823 28.6895L19.3683 28.7629L20.1363 26.8189L19.9503 26.7455ZM19.2753 28.6262H17.5833V28.8262H19.2753V28.6262ZM17.675 28.7661L21.371 20.2701L21.1876 20.1903L17.4916 28.6863L17.675 28.7661ZM23.2928 25.4508L21.9848 21.9948L21.7977 22.0656L23.1057 25.5216L23.2928 25.4508ZM21.7979 21.9942L20.4659 25.4502L20.6526 25.5222L21.9846 22.0662L21.7979 21.9942ZM20.5593 25.5862H23.1993V25.3862H20.5593V25.5862ZM31.0719 27.9942H31.1719V27.8942H31.0719V27.9942ZM31.0359 27.9942V27.8942H30.9774L30.9488 27.9452L31.0359 27.9942ZM30.3399 28.6302L30.3846 28.7197L30.3864 28.7187L30.3399 28.6302ZM28.5159 28.7742L28.5402 28.6772L28.5379 28.6767L28.5159 28.7742ZM27.8199 28.4862L27.7629 28.5685L27.7666 28.5708L27.8199 28.4862ZM27.2919 27.9342L27.2056 27.9848L27.2078 27.9883L27.2919 27.9342ZM27.4479 26.0502L27.3761 25.9806L27.375 25.9818L27.4479 26.0502ZM28.3959 25.4622L28.3625 25.3679L28.3959 25.4622ZM29.6679 25.1982L29.6765 25.2978L29.678 25.2977L29.6679 25.1982ZM31.0479 25.1262V25.2262H31.1479V25.1262H31.0479ZM30.6519 24.1902L30.5952 24.2727L30.5982 24.2746L30.6519 24.1902ZM28.8519 24.1182L28.8935 24.2091L28.8519 24.1182ZM28.1559 24.5862L28.0797 24.6509L28.1499 24.7336L28.2266 24.6569L28.1559 24.5862ZM27.4119 23.7102L27.3439 23.6369L27.2737 23.7019L27.3357 23.7749L27.4119 23.7102ZM28.5399 23.0262L28.5067 22.9319L28.5062 22.9321L28.5399 23.0262ZM31.1079 23.0142L31.0677 23.1058L31.0685 23.1061L31.1079 23.0142ZM31.8999 23.5782L31.8229 23.642L31.8999 23.5782ZM32.2959 24.3582L32.1989 24.3825L32.1996 24.385L32.2959 24.3582ZM32.4159 28.7262V28.8262H32.5159V28.7262H32.4159ZM31.0719 28.7262H30.9719V28.8262H31.0719V28.7262ZM31.0479 26.0982H31.1479V25.9982H31.0479V26.0982ZM29.9919 26.1342L29.9982 26.234L30.0012 26.2338L29.9919 26.1342ZM29.2839 26.2662L29.3123 26.3621L29.3155 26.3611L29.2839 26.2662ZM28.7439 26.5542L28.808 26.6311L28.8103 26.6289L28.7439 26.5542ZM28.6119 27.4062L28.5251 27.4568L28.531 27.465L28.6119 27.4062ZM28.8519 27.6222L28.8015 27.7086L28.8519 27.6222ZM30.6639 27.3822L30.7357 27.4518L30.6639 27.3822ZM31.0719 27.8942H31.0359V28.0942H31.0719V27.8942ZM30.9488 27.9452C30.8162 28.1808 30.6003 28.3806 30.2934 28.5417L30.3864 28.7187C30.7195 28.5438 30.9676 28.3196 31.1231 28.0432L30.9488 27.9452ZM30.2952 28.5408C29.9909 28.6929 29.6426 28.7702 29.2479 28.7702V28.9702C29.6692 28.9702 30.0489 28.8875 30.3846 28.7196L30.2952 28.5408ZM29.2479 28.7702C29.0251 28.7702 28.7893 28.7395 28.5402 28.6772L28.4917 28.8712C28.7545 28.9369 29.0067 28.9702 29.2479 28.9702V28.7702ZM28.5379 28.6767C28.3011 28.6232 28.0796 28.5315 27.8732 28.4016L27.7666 28.5708C27.9922 28.7128 28.2348 28.8132 28.4939 28.8717L28.5379 28.6767ZM27.8768 28.404C27.6802 28.2679 27.5133 28.0936 27.376 27.8801L27.2078 27.9883C27.3585 28.2228 27.5436 28.4165 27.763 28.5684L27.8768 28.404ZM27.3782 27.8836C27.2532 27.6703 27.1879 27.4048 27.1879 27.0822H26.9879C26.9879 27.4316 27.0587 27.734 27.2056 27.9848L27.3782 27.8836ZM27.1879 27.0822C27.1879 26.6694 27.302 26.352 27.5209 26.1186L27.375 25.9818C27.1138 26.2604 26.9879 26.631 26.9879 27.0822H27.1879ZM27.5197 26.1198C27.7556 25.8763 28.0578 25.688 28.4293 25.5565L28.3625 25.3679C27.9661 25.5083 27.6363 25.712 27.3761 25.9806L27.5197 26.1198ZM28.4293 25.5565C28.8042 25.4237 29.2198 25.3372 29.6765 25.2978L29.6593 25.0986C29.188 25.1392 28.7556 25.2287 28.3625 25.3679L28.4293 25.5565ZM29.678 25.2977C30.1469 25.25 30.6035 25.2262 31.0479 25.2262V25.0262C30.5963 25.0262 30.133 25.0504 29.6578 25.0987L29.678 25.2977ZM31.1479 25.1262V24.9822H30.9479V25.1262H31.1479ZM31.1479 24.9822C31.1479 24.594 31.0032 24.2952 30.7056 24.1058L30.5982 24.2746C30.8286 24.4212 30.9479 24.6503 30.9479 24.9822H31.1479ZM30.7086 24.1078C30.4334 23.9186 30.1048 23.8262 29.7279 23.8262V24.0262C30.071 24.0262 30.3585 24.1098 30.5953 24.2726L30.7086 24.1078ZM29.7279 23.8262C29.4094 23.8262 29.1032 23.8934 28.8103 24.0272L28.8935 24.2091C29.1606 24.087 29.4384 24.0262 29.7279 24.0262V23.8262ZM28.8103 24.0272C28.5214 24.1593 28.279 24.3217 28.0852 24.5155L28.2266 24.6569C28.4008 24.4827 28.6224 24.3331 28.8935 24.2091L28.8103 24.0272ZM28.2321 24.5215L27.4881 23.6455L27.3357 23.7749L28.0797 24.6509L28.2321 24.5215ZM27.4799 23.7835C27.7979 23.4888 28.1623 23.2678 28.5737 23.1203L28.5062 22.9321C28.0696 23.0886 27.6819 23.3236 27.3439 23.6369L27.4799 23.7835ZM28.5731 23.1205C28.9949 22.9721 29.4197 22.8982 29.8479 22.8982V22.6982C29.3962 22.6982 28.9489 22.7763 28.5067 22.9319L28.5731 23.1205ZM29.8479 22.8982C30.3516 22.8982 30.7566 22.9692 31.0677 23.1058L31.1481 22.9226C30.8032 22.7712 30.3683 22.6982 29.8479 22.6982V22.8982ZM31.0685 23.1061C31.393 23.2452 31.643 23.4245 31.8229 23.642L31.977 23.5144C31.7729 23.2678 31.4948 23.0712 31.1473 22.9223L31.0685 23.1061ZM31.8229 23.642C32.0055 23.8626 32.1306 24.1092 32.1989 24.3824L32.3929 24.3339C32.3172 24.0312 32.1783 23.7578 31.977 23.5144L31.8229 23.642ZM32.1996 24.385C32.2772 24.6646 32.3159 24.9436 32.3159 25.2222H32.5159C32.5159 24.9248 32.4746 24.6278 32.3923 24.3314L32.1996 24.385ZM32.3159 25.2222V28.7262H32.5159V25.2222H32.3159ZM32.4159 28.6262H31.0719V28.8262H32.4159V28.6262ZM31.1719 28.7262V27.9942H30.9719V28.7262H31.1719ZM31.0479 25.9982H30.7239V26.1982H31.0479V25.9982ZM30.7239 25.9982C30.4885 25.9982 30.2414 26.0104 29.9826 26.0346L30.0012 26.2338C30.2545 26.21 30.4953 26.1982 30.7239 26.1982V25.9982ZM29.9857 26.0344C29.7221 26.0509 29.4775 26.0963 29.2523 26.1713L29.3155 26.3611C29.5224 26.2921 29.7497 26.2495 29.9981 26.234L29.9857 26.0344ZM29.2555 26.1703C29.0278 26.2378 28.8342 26.3402 28.6775 26.4795L28.8103 26.6289C28.9417 26.5122 29.108 26.4226 29.3123 26.3621L29.2555 26.1703ZM28.6799 26.4774C28.5095 26.6194 28.4279 26.8176 28.4279 27.0582H28.6279C28.6279 26.8668 28.6903 26.729 28.8079 26.631L28.6799 26.4774ZM28.4279 27.0582C28.4279 27.208 28.4588 27.3422 28.5255 27.4566L28.6983 27.3558C28.653 27.2782 28.6279 27.1804 28.6279 27.0582H28.4279ZM28.531 27.465C28.6034 27.5645 28.6938 27.6458 28.8015 27.7086L28.9023 27.5358C28.818 27.4866 28.7485 27.4239 28.6928 27.3474L28.531 27.465ZM28.8015 27.7086C28.908 27.7707 29.0266 27.8143 29.1563 27.8403L29.1955 27.6441C29.0853 27.6221 28.9878 27.5857 28.9023 27.5358L28.8015 27.7086ZM29.1563 27.8403C29.2826 27.8655 29.4092 27.8782 29.5359 27.8782V27.6782C29.4226 27.6782 29.3092 27.6669 29.1955 27.6441L29.1563 27.8403ZM29.5359 27.8782C30.0492 27.8782 30.455 27.7413 30.7357 27.4518L30.5921 27.3126C30.3608 27.5511 30.0146 27.6782 29.5359 27.6782V27.8782ZM30.7357 27.4518C31.0139 27.1649 31.1479 26.7776 31.1479 26.3022H30.9479C30.9479 26.7388 30.8259 27.0715 30.5921 27.3126L30.7357 27.4518ZM31.1479 26.3022V26.0982H30.9479V26.3022H31.1479Z" fill="#FBFBFB"/>
<defs>
<filter id="filter0_d" x="0.763672" y="0.727173" width="48.5093" height="48.5093" filterUnits="userSpaceOnUse" color-interpolation-filters="sRGB">
<feFlood flood-opacity="0" result="BackgroundImageFix"/>
<feColorMatrix in="SourceAlpha" type="matrix" values="0 0 0 0 0 0 0 0 0 0 0 0 0 0 0 0 0 0 127 0"/>
<feOffset/>
<feGaussianBlur stdDeviation="6.5"/>
<feColorMatrix type="matrix" values="0 0 0 0 0 0 0 0 0 0 0 0 0 0 0 0 0 0 0.42 0"/>
<feBlend mode="normal" in2="BackgroundImageFix" result="effect1_dropShadow"/>
<feBlend mode="normal" in="SourceGraphic" in2="effect1_dropShadow" result="shape"/>
</filter>
<radialGradient id="paint0_radial" cx="0" cy="0" r="1" gradientUnits="userSpaceOnUse" gradientTransform="translate(24.8182 41.0909) rotate(-92.3859) scale(30.572)">
<stop stop-color="#1FAEF7" stop-opacity="0.24"/>
<stop offset="0.323037" stop-color="#1FAEF7" stop-opacity="0.298147"/>
<stop offset="1" stop-color="#1FAEF7" stop-opacity="0.42"/>
</radialGradient>
<radialGradient id="paint1_radial" cx="0" cy="0" r="1" gradientUnits="userSpaceOnUse" gradientTransform="translate(24.8183 36.6363) rotate(-90) scale(22.9091)">
<stop stop-color="#008DD6"/>
<stop offset="1" stop-color="#4EBFF9"/>
</radialGradient>
</defs>
</svg>
