<svg width="30" height="30" viewBox="0 0 30 30" fill="none" xmlns="http://www.w3.org/2000/svg">
<path d="M2.23438 10.3438C3.0625 10.3438 3.5 9.89062 3.5 9.0625V5.375C3.5 3.75 4.35938 2.92188 5.92188 2.92188H9.70312C10.5312 2.92188 10.9844 2.46875 10.9844 1.65625C10.9844 0.859375 10.5312 0.40625 9.70312 0.40625H5.89062C2.625 0.40625 0.984375 2.01562 0.984375 5.23438V9.0625C0.984375 9.89062 1.4375 10.3438 2.23438 10.3438ZM28.4062 10.3438C29.2344 10.3438 29.6719 9.89062 29.6719 9.0625V5.23438C29.6719 2.01562 28.0312 0.40625 24.7656 0.40625H20.9375C20.125 0.40625 19.6719 0.859375 19.6719 1.65625C19.6719 2.46875 20.125 2.92188 20.9375 2.92188H24.7188C26.2656 2.92188 27.1562 3.75 27.1562 5.375V9.0625C27.1562 9.89062 27.6094 10.3438 28.4062 10.3438ZM14.6562 13.3906V7.9375C14.6562 7.5625 14.3594 7.25 13.9688 7.25H8.51562C8.14062 7.25 7.84375 7.5625 7.84375 7.9375V13.3906C7.84375 13.7656 8.14062 14.0625 8.51562 14.0625H13.9688C14.3594 14.0625 14.6562 13.7656 14.6562 13.3906ZM17.3594 8.60938H21.4531V12.7031H17.3594V8.60938ZM20.2656 11.5156V9.8125H18.5469V11.5156H20.2656ZM12.0938 11.5156V9.8125H10.3906V11.5156H12.0938ZM9.1875 16.7812H13.2969V20.875H9.1875V16.7812ZM22.6094 17.3125V15.6094H20.9062V17.3125H22.6094ZM17.9062 17.3125V15.6094H16.2031V17.3125H17.9062ZM12.0938 19.6719V17.9688H10.3906V19.6719H12.0938ZM20.25 19.6719V17.9688H18.5469V19.6719H20.25ZM20.9375 29.0781H24.7656C28.0312 29.0781 29.6719 27.4531 29.6719 24.2344V20.4219C29.6719 19.5938 29.2188 19.1406 28.4062 19.1406C27.5938 19.1406 27.1562 19.5938 27.1562 20.4219V24.1094C27.1562 25.7344 26.2656 26.5625 24.7188 26.5625H20.9375C20.125 26.5625 19.6719 27.0156 19.6719 27.8281C19.6719 28.625 20.125 29.0781 20.9375 29.0781ZM5.89062 29.0781H9.70312C10.5312 29.0781 10.9844 28.625 10.9844 27.8281C10.9844 27.0156 10.5312 26.5625 9.70312 26.5625H5.92188C4.35938 26.5625 3.5 25.7344 3.5 24.1094V20.4219C3.5 19.5938 3.04688 19.1406 2.23438 19.1406C1.42188 19.1406 0.984375 19.5938 0.984375 20.4219V24.2344C0.984375 27.4688 2.625 29.0781 5.89062 29.0781ZM17.9062 22.0312V20.3281H16.2031V22.0312H17.9062ZM22.6094 22.0312V20.3281H20.9062V22.0312H22.6094ZM22.8125 13.3906V7.9375C22.8125 7.5625 22.5156 7.25 22.125 7.25H16.6875C16.2969 7.25 16 7.5625 16 7.9375V13.3906C16 13.7656 16.2969 14.0625 16.6875 14.0625H22.125C22.5156 14.0625 22.8125 13.7656 22.8125 13.3906ZM9.1875 8.60938H13.2969V12.7031H9.1875V8.60938ZM14.6562 21.5469V16.0938C14.6562 15.7188 14.3594 15.4219 13.9688 15.4219H8.51562C8.14062 15.4219 7.84375 15.7188 7.84375 16.0938V21.5469C7.84375 21.9219 8.14062 22.2344 8.51562 22.2344H13.9688C14.3594 22.2344 14.6562 21.9219 14.6562 21.5469Z" fill="black"/>
</svg>
