<svg width="44" height="42" viewBox="0 0 44 42" fill="none" xmlns="http://www.w3.org/2000/svg">
<path d="M44 10C44 4.47715 39.5228 0 34 0H22H10C4.47715 0 0 4.47715 0 10V32C0 37.5228 4.47715 42 10 42H34C39.5228 42 44 37.5228 44 32V10Z" fill="url(#paint0_linear)"/>
<circle cx="17.5009" cy="13.2504" r="5.25039" fill="white"/>
<path d="M26.0016 31.2493C27.1061 31.2493 28.0231 30.3433 27.7819 29.2654C27.6484 28.6687 27.4546 28.0836 27.2022 27.5178C26.6745 26.3348 25.901 25.2599 24.9259 24.3545C23.9509 23.449 22.7933 22.7308 21.5193 22.2408C20.2452 21.7507 18.8798 21.4985 17.5008 21.4985C16.1218 21.4985 14.7563 21.7507 13.4823 22.2408C12.2083 22.7308 11.0507 23.449 10.0756 24.3545C9.10052 25.2599 8.32704 26.3348 7.79932 27.5178C7.54696 28.0836 7.35316 28.6687 7.21963 29.2654C6.97841 30.3433 7.89543 31.2493 9 31.2493L17.5008 31.2493H26.0016Z" fill="white"/>
<path d="M28 19.656C28 20.2277 28.4634 20.6912 29.0351 20.6912H36.9649C37.5365 20.6912 38 20.2277 38 19.656V19.656C38 19.0843 37.5366 18.6209 36.9649 18.6209H29.0351C28.4635 18.6209 28 19.0843 28 19.656V19.656Z" fill="url(#paint1_radial)"/>
<path d="M28 19.656C28 20.2277 28.4634 20.6912 29.0351 20.6912H36.9649C37.5365 20.6912 38 20.2277 38 19.656V19.656C38 19.0843 37.5366 18.6209 36.9649 18.6209H29.0351C28.4635 18.6209 28 19.0843 28 19.656V19.656Z" fill="white"/>
<path d="M32.1108 23.949C32.1108 24.5013 32.5586 24.949 33.1108 24.949V24.949C33.6631 24.949 34.1108 24.5013 34.1108 23.949V15.5975C34.1108 15.0453 33.6631 14.5975 33.1108 14.5975V14.5975C32.5586 14.5975 32.1108 15.0453 32.1108 15.5975V23.949Z" fill="url(#paint2_radial)"/>
<path d="M32.1108 23.949C32.1108 24.5013 32.5586 24.949 33.1108 24.949V24.949C33.6631 24.949 34.1108 24.5013 34.1108 23.949V15.5975C34.1108 15.0453 33.6631 14.5975 33.1108 14.5975V14.5975C32.5586 14.5975 32.1108 15.0453 32.1108 15.5975V23.949Z" fill="white"/>
<defs>
<linearGradient id="paint0_linear" x1="43.3105" y1="117.075" x2="-8.45019e-05" y2="117.067" gradientUnits="userSpaceOnUse">
<stop stop-color="#72CFFF"/>
<stop offset="0.630208" stop-color="#30B9FF"/>
<stop offset="1" stop-color="#00A7FD"/>
</linearGradient>
<radialGradient id="paint1_radial" cx="0" cy="0" r="1" gradientUnits="userSpaceOnUse" gradientTransform="translate(21.5185 19.656) rotate(-90) scale(1.03514 5)">
<stop stop-color="#C4C4C4"/>
<stop offset="1" stop-color="#C4C4C4" stop-opacity="0"/>
</radialGradient>
<radialGradient id="paint2_radial" cx="0" cy="0" r="1" gradientUnits="userSpaceOnUse" gradientTransform="translate(30.8145 19.7733) rotate(-90) scale(5.17572 1)">
<stop stop-color="#C4C4C4"/>
<stop offset="1" stop-color="#C4C4C4" stop-opacity="0"/>
</radialGradient>
</defs>
</svg>
